<?xml version="1.0" standalone="no"?>
<!DOCTYPE svg PUBLIC "-//W3C//DTD SVG 20010904//EN"
 "http://www.w3.org/TR/2001/REC-SVG-20010904/DTD/svg10.dtd">
<svg version="1.0" xmlns="http://www.w3.org/2000/svg"
 width="512.000000pt" height="512.000000pt" viewBox="0 0 512.000000 512.000000"
 preserveAspectRatio="xMidYMid meet">

<g transform="translate(0.000000,512.000000) scale(0.100000,-0.100000)"
fill="#000000" stroke="none">
<path d="M2439 4246 c-70 -29 -106 -56 -141 -108 -33 -48 -48 -97 -48 -154 l0
-41 -97 -7 c-150 -11 -237 -24 -366 -57 -755 -189 -1320 -851 -1385 -1621 l-7
-80 -65 -17 c-123 -31 -174 -93 -173 -214 0 -57 6 -79 37 -142 55 -111 134
-174 247 -195 28 -6 213 -10 410 -10 l359 0 0 -110 0 -110 -448 0 -448 0 -54
-32 c-41 -25 -60 -45 -80 -83 -24 -47 -25 -57 -25 -213 l0 -164 28 -24 28 -24
2349 0 2349 0 28 24 c28 24 28 25 31 162 5 204 -20 275 -117 328 l-49 26 -446
0 -446 0 0 110 0 110 368 0 c406 0 447 5 527 60 137 94 200 287 132 402 -32
56 -74 83 -153 101 l-59 14 -7 84 c-51 577 -387 1110 -893 1414 -257 155 -530
238 -856 261 l-96 7 -5 62 c-17 200 -233 322 -429 241z m196 -150 c43 -18 75
-69 75 -118 l0 -38 -150 0 -150 0 0 38 c0 101 117 163 225 118z m541 -344
c162 -31 291 -74 449 -153 180 -89 302 -176 445 -319 172 -172 293 -355 379
-575 61 -156 111 -375 111 -489 l0 -46 -2001 0 -2002 0 7 88 c19 262 137 578
303 812 86 121 271 305 393 393 175 124 412 229 628 276 155 35 240 39 717 36
417 -2 470 -4 571 -23z m1597 -1753 c12 -7 25 -17 29 -23 36 -53 -51 -180
-139 -206 -27 -8 -637 -10 -2123 -8 l-2085 3 -43 25 c-48 27 -87 83 -97 142
-6 29 -3 40 14 57 l21 21 2201 0 c1638 0 2206 -3 2222 -11z m-1025 -506 l-3
-108 -1185 0 -1185 0 -3 108 -3 107 1191 0 1191 0 -3 -107z m1047 -297 c12
-18 15 -45 13 -107 l-3 -84 -2245 0 -2245 0 0 91 c0 62 4 96 14 107 12 16 182
17 2232 17 l2219 0 15 -24z"/>
</g>
</svg>
