<?xml version="1.0" standalone="no"?>
<!DOCTYPE svg PUBLIC "-//W3C//DTD SVG 20010904//EN"
 "http://www.w3.org/TR/2001/REC-SVG-20010904/DTD/svg10.dtd">
<svg version="1.0" xmlns="http://www.w3.org/2000/svg"
 width="512.000000pt" height="512.000000pt" viewBox="0 0 512.000000 512.000000"
 preserveAspectRatio="xMidYMid meet">

<g transform="translate(0.000000,512.000000) scale(0.100000,-0.100000)"
fill="#000000" stroke="none">
<path d="M2300 5035 l0 -85 85 0 85 0 0 -128 0 -129 -123 -12 c-866 -84 -1608
-673 -1886 -1496 -63 -189 -98 -357 -113 -557 l-12 -158 -137 0 c-76 0 -145
-3 -154 -6 -22 -9 -45 -57 -45 -96 1 -132 70 -288 174 -393 77 -78 145 -120
246 -156 62 -22 81 -23 428 -27 l362 -4 -112 -93 c-72 -60 -116 -91 -122 -85
-6 6 -201 10 -493 10 l-483 0 0 -85 0 -85 425 0 425 0 0 -640 0 -640 -425 0
-425 0 0 -85 0 -85 476 0 c342 0 481 3 497 12 43 22 46 37 47 185 l0 142 1073
4 1072 3 65 22 c36 12 94 39 128 59 84 51 1161 944 1189 985 60 90 77 199 46
288 -11 30 -23 63 -27 72 -6 13 -2 18 21 23 101 20 136 31 203 63 103 50 213
159 263 262 37 74 66 185 67 248 0 39 -23 87 -45 96 -9 3 -78 6 -154 6 l-137
0 -12 158 c-15 200 -50 368 -113 557 -278 824 -1020 1412 -1886 1496 l-123 12
0 129 0 128 85 0 85 0 0 85 0 85 -260 0 -260 0 0 -85z m485 -525 c363 -42 715
-184 1017 -411 104 -78 305 -279 385 -384 235 -312 377 -678 412 -1065 6 -63
11 -127 11 -142 l0 -28 -2050 0 -2050 0 0 28 c0 15 5 79 11 142 35 387 177
753 412 1065 80 105 281 306 385 384 296 223 655 369 1005 410 104 12 358 12
462 1z m2143 -2247 c-18 -65 -49 -115 -107 -173 -65 -65 -144 -105 -233 -120
-87 -14 -3969 -14 -4056 0 -159 26 -300 148 -340 293 l-10 37 2378 0 2378 0
-10 -37z m-2184 -488 c90 -43 90 -187 -1 -223 -18 -7 -146 -12 -348 -14 -353
-4 -356 -4 -430 -69 -112 -99 -112 -279 0 -378 79 -69 51 -66 665 -66 l556 0
500 357 c275 197 518 365 539 374 97 40 214 -42 215 -152 0 -73 -23 -95 -590
-563 -300 -248 -566 -462 -592 -476 -100 -55 -97 -55 -1205 -55 l-1023 0 0
453 0 452 192 160 c105 88 201 166 211 174 54 39 75 40 685 41 511 0 598 -2
626 -15z m798 -285 l-420 -301 -512 3 -512 3 -24 28 c-31 36 -31 78 0 114 l24
28 339 5 c330 5 339 6 383 28 139 73 200 231 144 375 -6 16 31 17 497 17 l502
0 -421 -300z"/>
<path d="M2311 4334 c-292 -40 -589 -155 -821 -319 -68 -48 -210 -166 -210
-174 0 -4 26 -32 58 -63 l57 -57 65 55 c181 153 400 270 635 339 102 30 322
65 408 65 l57 0 0 85 0 85 -72 -1 c-40 -1 -120 -7 -177 -15z"/>
<path d="M1108 3662 c-25 -31 -61 -79 -79 -105 l-34 -49 25 -20 c13 -11 44
-31 69 -46 l44 -26 26 34 c14 19 47 61 74 94 l47 60 -27 29 c-16 16 -44 42
-63 57 l-36 29 -46 -57z"/>
<path d="M339 836 c-130 -46 -199 -197 -150 -328 66 -174 288 -221 419 -87 44
45 65 95 70 165 12 178 -168 311 -339 250z m146 -181 c53 -52 16 -139 -60
-139 -81 0 -111 101 -46 151 27 21 79 15 106 -12z"/>
</g>
</svg>
